HIERARCHY
ROOT hip
{
  OFFSET 0 0 0
  CHANNELS 6 Xposition Yposition Zposition Zrotation Yrotation Xrotation
  JOINT abdomen
  {
    OFFSET 0 20.6881 -0.73152
    CHANNELS 3 Zrotation Xrotation Yrotation
    JOINT chest
    {
      OFFSET 0 11.7043 -0.48768
      CHANNELS 3 Zrotation Xrotation Yrotation
      JOINT neck
      {
        OFFSET 0 22.1894 -2.19456
        CHANNELS 3 Zrotation Xrotation Yrotation
        JOINT head
        {
          OFFSET -0.24384 7.07133 1.2192
          CHANNELS 3 Zrotation Xrotation Yrotation
          JOINT leftEye
          {
            OFFSET 4.14528 8.04674 8.04672
            CHANNELS 3 Zrotation Xrotation Yrotation
            End Site
            {
              OFFSET 1 0 0
            }
          }
          JOINT rightEye
          {
            OFFSET -3.6576 8.04674 8.04672
            CHANNELS 3 Zrotation Xrotation Yrotation
            End Site
            {
              OFFSET 1 0 0
            }
          }
        }
      }
      JOINT rCollar
      {
        OFFSET -2.68224 19.2634 -4.8768
        CHANNELS 3 Zrotation Xrotation Yrotation
        JOINT rShldr
        {
          OFFSET -8.77824 -1.95073 1.46304
          CHANNELS 3 Zrotation Xrotation Yrotation
          JOINT rForeArm
          {
            OFFSET -28.1742 -1.7115 0.48768
            CHANNELS 3 Zrotation Xrotation Yrotation
            JOINT rHand
            {
              OFFSET -22.5879 0.773209 7.07136
              CHANNELS 3 Zrotation Xrotation Yrotation
              JOINT rThumb1
              {
                OFFSET -1.2192 -0.487915 3.41376
                CHANNELS 3 Zrotation Xrotation Yrotation
                JOINT rThumb2
                {
                  OFFSET -3.37035 -0.52449 3.41376
                  CHANNELS 3 Zrotation Xrotation Yrotation
                  End Site
                  {
                    OFFSET -1.78271 -1.18214 1.43049
                  }
                }
              }
              JOINT rIndex1
              {
                OFFSET -7.75947 0.938293 5.60832
                CHANNELS 3 Zrotation Xrotation Yrotation
                JOINT rIndex2
                {
                  OFFSET -2.54057 -0.884171 1.56538
                  CHANNELS 3 Zrotation Xrotation Yrotation
                  End Site
                  {
                    OFFSET -1.62519 -0.234802 1.16502
                  }
                }
              }
              JOINT rMid1
              {
                OFFSET -8.24714 1.18213 3.41376
                CHANNELS 3 Zrotation Xrotation Yrotation
                JOINT rMid2
                {
                  OFFSET -3.10165 -0.590103 1.0647
                  CHANNELS 3 Zrotation Xrotation Yrotation
                  End Site
                  {
                    OFFSET -2.48547 -0.328903 0.83742
                  }
                }
              }
              JOINT rRing1
              {
                OFFSET -8.82822 0.546677 1.51678
                CHANNELS 3 Zrotation Xrotation Yrotation
                JOINT rRing2
                {
                  OFFSET -2.60934 -0.819778 -0.0198488
                  CHANNELS 3 Zrotation Xrotation Yrotation
                  End Site
                  {
                    OFFSET -2.33842 -0.294052 0.168128
                  }
                }
              }
              JOINT rPinky1
              {
                OFFSET -8.27202 -0.0477905 -0.4584
                CHANNELS 3 Zrotation Xrotation Yrotation
                JOINT rPinky2
                {
                  OFFSET -1.82734 -0.647385 -0.700984
                  CHANNELS 3 Zrotation Xrotation Yrotation
                  End Site
                  {
                    OFFSET -1.69225 -0.51767 -0.607171
                  }
                }
              }
            }
          }
        }
      }
      JOINT lCollar
      {
        OFFSET 2.68224 19.2634 -4.8768
        CHANNELS 3 Zrotation Xrotation Yrotation
        JOINT lShldr
        {
          OFFSET 8.77824 -1.95073 1.46304
          CHANNELS 3 Zrotation Xrotation Yrotation
          JOINT lForeArm
          {
            OFFSET 28.1742 -1.7115 0.48768
            CHANNELS 3 Zrotation Xrotation Yrotation
            JOINT lHand
            {
              OFFSET 22.5879 0.773209 7.07136
              CHANNELS 3 Zrotation Xrotation Yrotation
              JOINT lThumb1
              {
                OFFSET 1.2192 -0.487915 3.41376
                CHANNELS 3 Zrotation Xrotation Yrotation
                JOINT lThumb2
                {
                  OFFSET 3.37035 -0.52449 3.41376
                  CHANNELS 3 Zrotation Xrotation Yrotation
                  End Site
                  {
                    OFFSET 1.78271 -1.18214 1.43049
                  }
                }
              }
              JOINT lIndex1
              {
                OFFSET 7.75947 0.938293 5.60832
                CHANNELS 3 Zrotation Xrotation Yrotation
                JOINT lIndex2
                {
                  OFFSET 2.54057 -0.884171 1.56538
                  CHANNELS 3 Zrotation Xrotation Yrotation
                  End Site
                  {
                    OFFSET 1.62519 -0.234802 1.16502
                  }
                }
              }
              JOINT lMid1
              {
                OFFSET 8.24714 1.18213 3.41376
                CHANNELS 3 Zrotation Xrotation Yrotation
                JOINT lMid2
                {
                  OFFSET 3.10165 -0.590103 1.0647
                  CHANNELS 3 Zrotation Xrotation Yrotation
                  End Site
                  {
                    OFFSET 2.48547 -0.328903 0.83742
                  }
                }
              }
              JOINT lRing1
              {
                OFFSET 8.82822 0.546677 1.51678
                CHANNELS 3 Zrotation Xrotation Yrotation
                JOINT lRing2
                {
                  OFFSET 2.60934 -0.819778 -0.0198488
                  CHANNELS 3 Zrotation Xrotation Yrotation
                  End Site
                  {
                    OFFSET 2.33842 -0.294052 0.168128
                  }
                }
              }
              JOINT lPinky1
              {
                OFFSET 8.27202 -0.0477905 -0.4584
                CHANNELS 3 Zrotation Xrotation Yrotation
                JOINT lPinky2
                {
                  OFFSET 1.82734 -0.647385 -0.700984
                  CHANNELS 3 Zrotation Xrotation Yrotation
                  End Site
                  {
                    OFFSET 1.69225 -0.51767 -0.607171
                  }
                }
              }
            }
          }
        }
      }
    }
  }
  JOINT rButtock
  {
    OFFSET -8.77824 4.35084 1.2192
    CHANNELS 3 Zrotation Xrotation Yrotation
    JOINT rThigh
    {
      OFFSET 0 -1.70687 -2.19456
      CHANNELS 3 Zrotation Xrotation Yrotation
      JOINT rShin
      {
        OFFSET 0 -36.8199 0.73152
        CHANNELS 3 Zrotation Xrotation Yrotation
        JOINT rFoot
        {
          OFFSET 0.73152 -45.1104 -5.12064
          CHANNELS 3 Zrotation Xrotation Yrotation
          End Site
          {
            OFFSET -1.1221 -3.69964 12.103
          }
        }
      }
    }
  }
  JOINT lButtock
  {
    OFFSET 8.77824 4.35084 1.2192
    CHANNELS 3 Zrotation Xrotation Yrotation
    JOINT lThigh
    {
      OFFSET 0 -1.70687 -2.19456
      CHANNELS 3 Zrotation Xrotation Yrotation
      JOINT lShin
      {
        OFFSET 0 -36.8199 0.73152
        CHANNELS 3 Zrotation Xrotation Yrotation
        JOINT lFoot
        {
          OFFSET -0.73152 -45.1104 -5.12064
          CHANNELS 3 Zrotation Xrotation Yrotation
          End Site
          {
            OFFSET 1.1221 -3.69964 12.103
          }
        }
      }
    }
  }
}
MOTION
Frames:	4
Frame Time:	0.03333
-0.7976635007653385 71.3748550415039 54.74261745810509 -21.437909603118896 -29.03323620557785 22.30695068836212 -23.718779683113098 15.51317811012268 19.600257128477097 12.112357020378113 -25.16435354948044 -1.026834100484848 -15.901926755905151 15.109690725803375 -7.905917018651962 21.235449761152267 -25.02900391817093 -8.798245713114738 -2.193215489387512 0.3042760770767927 2.5783951207995415 -4.939349927008152 1.229378767311573 -2.451048865914345 -2.12419755756855 -0.4473039507865906 -10.619933679699898 50.44040501117706 27.896175384521484 12.227472066879272 -37.091431617736816 -23.868463039398193 56.99156641960144 -7.167126014828682 -1.5361735224723816 -4.302721582353115 -4.0020208060741425 -1.1959534138441086 -5.334911718964577 -3.9405281469225883 -0.6273928284645081 -4.50493298470974 -2.4957101605832577 3.0123936384916306 4.655759297311306 15.58262586593628 7.434182167053223 -3.098272606730461 7.620576918125153 -7.6771386712789536 -1.3411876559257507 0.2622583508491516 4.234263226389885 -7.344568893313408 -6.139076873660088 8.583176136016846 1.4941312372684479 19.539668709039688 0.6086844205856323 2.381720468401909 -3.9602574706077576 -8.417492732405663 -3.554852306842804 15.505308508872986 -0.7767295092344284 -5.40171280503273 5.748236775398254 3.6905113980174065 -1.4307402446866035 -50.23179352283478 30.686016082763672 -18.97115707397461 29.897189140319824 -30.006092190742493 -58.302093744277954 -12.114446461200714 -13.122468888759613 2.8447341173887253 -3.07926245033741 2.383574042469263 -0.3461840422824025 -2.668314166367054 -1.1207762081176043 2.292632907629013 7.716493383049965 -2.1518806368112564 -3.2927515357732773 -9.34486985206604 10.82508847117424 -1.3468425069004297 1.7337126843631268 -5.415190905332565 -4.1415587067604065 -2.626965567469597 -1.2774352356791496 0.986437015235424 0.5446256417781115 -1.7958834394812584 10.463414713740349 -12.762017548084259 1.664077676832676 3.377041295170784 3.0019021779298782 3.410908877849579 0.17957942560315132 -1.8202338740229607 -8.598985746502876 2.176119089126587 3.6795860901474953 1.0934970527887344 -1.5373583883047104 -19.692014157772064 -34.231920540332794 -18.753055930137634 -16.74864649772644 60.001943707466125 10.809511542320251 -1.7452269047498703 -20.76256424188614 -8.101517111063004 -0.13436056673526764 1.052088439464569 2.5445154681801796 38.585840463638306 -35.10337293148041 29.178748726844788 19.210643470287323 59.062634110450745 5.494444817304611 -5.134502425789833 -8.605160862207413 11.37435257434845
-0.8038038045633584 71.19133758544922 54.8828210234642 -21.19737982749939 -29.280353486537933 23.132389783859253 -23.798301815986633 15.28673529624939 19.342221915721893 11.79833471775055 -25.177458822727203 -1.2241722643375397 -15.933308601379395 15.36300927400589 -7.743600457906723 21.089950650930405 -24.78948265314102 -8.297970816493034 -1.924806833267212 0.2593973558396101 2.788825146853924 -5.0185501947999 1.3405053690075874 -2.475285306572914 -2.39898182451725 -0.4934781789779663 -10.573209598660469 50.50419867038727 27.96048939228058 12.413271367549896 -36.805062890052795 -24.006752371788025 57.51476347446442 -7.1951765567064285 -1.6016019880771637 -4.662008844316006 -3.9809171855449677 -1.0535066574811935 -5.1738933473825455 -3.9989620819687843 -0.6437073647975922 -4.302748069167137 -2.6525442861020565 2.689380571246147 4.6825384721159935 15.600172877311707 7.377104759216309 -2.9299532622098923 7.615019381046295 -7.509961947798729 -1.405576765537262 0.1881060004234314 4.01840440928936 -7.542065307497978 -6.062875315546989 8.441716432571411 1.522165685892105 19.512599855661392 0.43171226978302 2.024686262011528 -4.1363391280174255 -8.131612166762352 -3.419100344181061 15.362340062856674 -0.678088590502739 -5.12007012963295 5.6639885902404785 3.434119038283825 -1.1609582975506783 -50.414655804634094 30.683612823486328 -18.888298273086548 29.943296313285828 -29.721810221672058 -58.10172200202942 -12.050942480564117 -12.832779586315155 3.062196895480156 -3.0637700110673904 2.3026678897440434 -0.3051757486537099 -2.5138403847813606 -0.949531914666295 2.009488195180893 7.89664663374424 -2.1124038845300674 -3.1015904992818832 -9.389601051807404 10.823157280683517 -1.4085761457681656 1.905894409865141 -5.199906080961227 -4.117719233036041 -2.6959895342588425 -0.9572009369730949 0.7168589159846306 0.21984231658279896 -1.671898327767849 10.287472531199455 -12.613240778446198 1.4100107923150063 3.281358852982521 3.0509423464536667 3.3094248175621033 0.27621807530522346 -1.8712494894862175 -8.55719693005085 2.212076783180237 3.486381210386753 1.0746250301599503 -1.447327360510826 -19.687744081020355 -34.26285445690155 -18.839455246925354 -16.546000242233276 60.022167563438416 10.865035951137543 -1.563662812113762 -20.58522194623947 -7.959848195314407 -0.17780162394046783 1.015658676624298 2.6368263736367226 39.17843699455261 -35.08584201335907 29.094200134277344 19.090292751789093 58.90394389629364 5.400374382734299 -5.3513053804636 -8.227060586214066 11.032595559954643
-0.8110942842904478 70.35651397705078 54.954466961324215 -20.826194286346436 -28.56008380651474 24.089418053627014 -23.631919026374817 14.42280650138855 18.886751979589462 11.12432710826397 -25.16738712787628 -1.47535040974617 -15.746457874774933 16.049257814884186 -7.294899076223373 20.681890100240707 -23.939233124256134 -6.964945122599602 -1.3764506578445435 0.28782877139747143 3.213966004550457 -5.375305451452732 1.5024732425808907 -2.6787040382623672 -3.0285821110010147 -0.5638016760349274 -10.618313625454903 52.15589225292206 27.988990545272827 11.927971243858337 -36.32756531238556 -24.55693244934082 59.409218430519104 -7.570194974541664 -1.5931087732315063 -5.848532617092133 -3.8247375190258026 -0.7784407585859299 -4.471637383103371 -4.261251948773861 -0.7998950779438019 -3.522450551390648 -3.0451662093400955 1.9991301745176315 4.719939194619656 15.300602316856384 7.229207754135132 -2.3879324644804 7.8612783551216125 -6.971763297915459 -1.7256072163581848 0.1842328906059265 3.685266003012657 -7.788313552737236 -5.559832379221916 8.48443329334259 1.186760812997818 19.528306871652603 0.049454569816589355 1.095394715666771 -4.816005527973175 -7.460872158408165 -3.304033577442169 14.898737668991089 -0.6314396113157272 -4.689784795045853 5.353570841252804 2.936456613242626 -0.591552103869617 -51.15267634391785 31.114150285720825 -19.037139415740967 30.456236600875854 -29.166142344474792 -57.91243851184845 -11.620292365550995 -12.494617402553558 4.204302951693535 -2.956084683537483 2.1895001269876957 -0.38114931900054216 -2.1738650277256966 -0.34157303161919117 1.2812255322933197 8.317415490746498 -2.1372733265161514 -2.6039280742406845 -9.537259340286255 10.714667290449142 -1.326688388362527 2.905033528804779 -4.6193526685237885 -3.8651302456855774 -2.941722795367241 -0.057909898459911346 -0.07717955857515335 -0.6923072319477797 -1.3977819308638573 9.734486863017082 -12.492552101612091 0.8127069845795631 3.16640205681324 2.9472816735506058 3.104884922504425 0.5157353170216084 -1.8299327418208122 -8.629434183239937 2.6868385076522827 2.7433771267533302 1.0431573539972305 -1.2165340036153793 -20.63593715429306 -34.35892850160599 -19.07352089881897 -15.003494024276733 60.19282579421997 10.760820060968399 -1.479291245341301 -19.626101553440094 -7.1655817329883575 -0.011365190148353577 0.896809995174408 2.9011205211281776 41.635801792144775 -34.891719818115234 29.40640926361084 18.068961203098297 59.01587247848511 4.961422830820084 -6.030510440468788 -6.689253598451614 10.340360328555107
-0.819724601926282 69.85589599609375 54.95944036543369 -22.10461288690567 -28.266853988170624 22.668190598487854 -23.635019659996033 13.839479684829712 18.590775579214096 10.997136756777763 -25.143848061561584 -1.823691576719284 -15.17111599445343 16.415754854679108 -7.402766793966293 20.924705117940903 -23.41119736433029 -6.45337276160717 -1.039533019065857 0.2787307184189558 3.4581060335040092 -5.70302814245224 1.4174820855259895 -2.714441791176796 -3.3527109771966934 -0.3786541521549225 -10.496637895703316 53.28465700149536 28.155587911605835 10.924467667937279 -36.078200340270996 -25.05459487438202 60.39589047431946 -7.968301847577095 -1.9097200781106949 -6.287277638912201 -4.138030260801315 -0.7953212410211563 -4.13419671356678 -4.223422072827816 -0.7276658713817596 -3.416455015540123 -3.356592133641243 2.113730236887932 4.848749600350857 14.914278388023376 7.339017391204834 -1.9621693342924118 7.996225655078888 -6.611499711871147 -1.7280158400535583 0.42581140995025635 3.3046364039182663 -7.70194910466671 -5.579943582415581 8.457595109939575 1.01143017411232 19.29594174027443 0.08338987827301025 0.76545350253582 -5.6244876980781555 -6.995015367865562 -3.1390079855918884 14.757176041603088 -0.6405376642942429 -4.43366602063179 5.461752377450466 2.857165150344372 -0.4023651732131839 -51.84863984584808 30.925666093826294 -18.932297229766846 30.289489030838013 -28.9454448223114 -57.769246101379395 -11.341369450092316 -12.54774123430252 4.824097082018852 -2.725350335240364 2.501655612140894 -0.41458037216216326 -2.2177566960453987 -0.011422606185078621 0.6949751079082489 8.642622604966164 -2.3939500004053116 -2.6077850908041 -10.064195394515991 10.557758063077927 -1.0187761578708887 3.4419795870780945 -4.350002557039261 -3.5384801030158997 -2.829059287905693 0.3308602049946785 -0.5139558389782906 -1.1188857536762953 -1.1484706029295921 9.65687446296215 -12.432588636875153 0.3465578332543373 3.1010741740465164 2.9990630596876144 2.7916941046714783 0.5228270776569843 -1.863819770514965 -8.676823452115059 2.6450926065444946 1.9702411070466042 1.190410628914833 -1.646159514784813 -21.652097404003143 -34.59449082612991 -19.622477889060974 -14.285777807235718 60.59384286403656 10.637801885604858 -1.5258651226758957 -19.1136172413826 -6.932336837053299 0.4188396781682968 0.6901779770851135 2.653971053659916 42.96096324920654 -34.90609645843506 29.71127450466156 17.224848568439484 59.38757836818695 4.805141240358353 -6.499553695321083 -5.8902449905872345 10.376398488879204
